<?xml version="1.0" encoding="UTF-8" standalone="no"?>
<!DOCTYPE svg PUBLIC "-//W3C//DTD SVG 1.1//EN"
 "http://www.w3.org/Graphics/SVG/1.1/DTD/svg11.dtd">
<!-- Generated by graphviz version 2.40.1 (20161225.0304)
 -->
<!-- Title: dependencies Pages: 1 -->
<svg width="849pt" height="284pt"
 viewBox="0.00 0.00 849.00 284.00" xmlns="http://www.w3.org/2000/svg" xmlns:xlink="http://www.w3.org/1999/xlink">
<g id="graph0" class="graph" transform="scale(1 1) rotate(0) translate(4 280)">
<title>dependencies</title>
<polygon fill="#ffffff" stroke="transparent" points="-4,4 -4,-280 845,-280 845,4 -4,4"/>
<text text-anchor="start" x="399.5091" y="-42.4" font-family="sans-serif" font-weight="bold" font-size="14.00" fill="#000000">Legend</text>
<polygon fill="#ffffb3" stroke="transparent" points="186.5,-10 186.5,-30 206.5,-30 206.5,-10 186.5,-10"/>
<text text-anchor="start" x="210.129" y="-15.4" font-family="sans-serif" font-size="14.00" fill="#000000"> &#160;Declarations</text>
<polygon fill="#8dd3c7" stroke="transparent" points="299.5,-10 299.5,-30 319.5,-30 319.5,-10 299.5,-10"/>
<text text-anchor="start" x="323.2251" y="-15.4" font-family="sans-serif" font-size="14.00" fill="#000000"> &#160;Module</text>
<polygon fill="#80b1d3" stroke="transparent" points="385.5,-10 385.5,-30 405.5,-30 405.5,-10 385.5,-10"/>
<text text-anchor="start" x="409.2812" y="-15.4" font-family="sans-serif" font-size="14.00" fill="#000000"> &#160;Bootstrap</text>
<polygon fill="#fdb462" stroke="transparent" points="482.5,-10 482.5,-30 502.5,-30 502.5,-10 482.5,-10"/>
<text text-anchor="start" x="506.1732" y="-15.4" font-family="sans-serif" font-size="14.00" fill="#000000"> &#160;Providers</text>
<polygon fill="#fb8072" stroke="transparent" points="578.5,-10 578.5,-30 598.5,-30 598.5,-10 578.5,-10"/>
<text text-anchor="start" x="602.2258" y="-15.4" font-family="sans-serif" font-size="14.00" fill="#000000"> &#160;Exports</text>
<g id="clust1" class="cluster">
<title>cluster_OpenNgLibModule</title>
<polygon fill="none" stroke="#000000" stroke-dasharray="1,5" points="8,-70 8,-268 833,-268 833,-70 8,-70"/>
</g>
<g id="clust2" class="cluster">
<title>cluster_OpenNgLibModule_declarations</title>
<polygon fill="none" stroke="#000000" points="23,-78 23,-130 819,-130 819,-78 23,-78"/>
</g>
<g id="clust8" class="cluster">
<title>cluster_OpenNgLibModule_exports</title>
<polygon fill="none" stroke="#000000" points="16,-208 16,-260 825,-260 825,-208 16,-208"/>
</g>
<!-- OpenNgAllowFilterDirective -->
<g id="node1" class="node">
<title>OpenNgAllowFilterDirective</title>
<polygon fill="#ffffb3" stroke="#000000" points="811.3347,-122 630.6653,-122 630.6653,-86 811.3347,-86 811.3347,-122"/>
<text text-anchor="middle" x="721" y="-99.8" font-family="Times,serif" font-size="14.00" fill="#000000">OpenNgAllowFilterDirective</text>
</g>
<!-- OpenNgLibModule -->
<g id="node5" class="node">
<title>OpenNgLibModule</title>
<polygon fill="#8dd3c7" stroke="#000000" points="378.4215,-187 375.4215,-191 354.4215,-191 351.4215,-187 251.5785,-187 251.5785,-151 378.4215,-151 378.4215,-187"/>
<text text-anchor="middle" x="315" y="-164.8" font-family="Times,serif" font-size="14.00" fill="#000000">OpenNgLibModule</text>
</g>
<!-- OpenNgAllowFilterDirective&#45;&gt;OpenNgLibModule -->
<g id="edge1" class="edge">
<title>OpenNgAllowFilterDirective&#45;&gt;OpenNgLibModule</title>
<path fill="none" stroke="#000000" d="M751.8891,-122.2667C751.8891,-140.5552 751.8891,-166 751.8891,-166 751.8891,-166 388.5274,-166 388.5274,-166"/>
<polygon fill="#000000" stroke="#000000" points="388.5275,-162.5001 378.5274,-166 388.5274,-169.5001 388.5275,-162.5001"/>
</g>
<!-- OpenNgBackdropComponent -->
<g id="node2" class="node">
<title>OpenNgBackdropComponent</title>
<polygon fill="#ffffb3" stroke="#000000" points="612.6867,-122 429.3133,-122 429.3133,-86 612.6867,-86 612.6867,-122"/>
<text text-anchor="middle" x="521" y="-99.8" font-family="Times,serif" font-size="14.00" fill="#000000">OpenNgBackdropComponent</text>
</g>
<!-- OpenNgBackdropComponent&#45;&gt;OpenNgLibModule -->
<g id="edge2" class="edge">
<title>OpenNgBackdropComponent&#45;&gt;OpenNgLibModule</title>
<path fill="none" stroke="#000000" d="M551.5311,-122.0091C551.5311,-138.0494 551.5311,-159 551.5311,-159 551.5311,-159 388.386,-159 388.386,-159"/>
<polygon fill="#000000" stroke="#000000" points="388.386,-155.5001 378.386,-159 388.386,-162.5001 388.386,-155.5001"/>
</g>
<!-- OpenNgDisallowFilterDirective -->
<g id="node3" class="node">
<title>OpenNgDisallowFilterDirective</title>
<polygon fill="#ffffb3" stroke="#000000" points="411.3848,-122 214.6152,-122 214.6152,-86 411.3848,-86 411.3848,-122"/>
<text text-anchor="middle" x="313" y="-99.8" font-family="Times,serif" font-size="14.00" fill="#000000">OpenNgDisallowFilterDirective</text>
</g>
<!-- OpenNgDisallowFilterDirective&#45;&gt;OpenNgLibModule -->
<g id="edge3" class="edge">
<title>OpenNgDisallowFilterDirective&#45;&gt;OpenNgLibModule</title>
<path fill="none" stroke="#000000" d="M315,-122.1061C315,-122.1061 315,-140.991 315,-140.991"/>
<polygon fill="#000000" stroke="#000000" points="311.5001,-140.9909 315,-150.991 318.5001,-140.991 311.5001,-140.9909"/>
</g>
<!-- OpenNgModalComponent -->
<g id="node4" class="node">
<title>OpenNgModalComponent</title>
<polygon fill="#ffffb3" stroke="#000000" points="196.8103,-122 31.1897,-122 31.1897,-86 196.8103,-86 196.8103,-122"/>
<text text-anchor="middle" x="114" y="-99.8" font-family="Times,serif" font-size="14.00" fill="#000000">OpenNgModalComponent</text>
</g>
<!-- OpenNgModalComponent&#45;&gt;OpenNgLibModule -->
<g id="edge4" class="edge">
<title>OpenNgModalComponent&#45;&gt;OpenNgLibModule</title>
<path fill="none" stroke="#000000" d="M138.7183,-122.0225C138.7183,-139.3734 138.7183,-163 138.7183,-163 138.7183,-163 241.3583,-163 241.3583,-163"/>
<polygon fill="#000000" stroke="#000000" points="241.3583,-166.5001 251.3583,-163 241.3582,-159.5001 241.3583,-166.5001"/>
</g>
<!-- OpenNgAllowFilterDirective  -->
<g id="node6" class="node">
<title>OpenNgAllowFilterDirective </title>
<polygon fill="#fb8072" stroke="#000000" points="817.3349,-252 632.6651,-252 632.6651,-216 817.3349,-216 817.3349,-252"/>
<text text-anchor="middle" x="725" y="-229.8" font-family="Times,serif" font-size="14.00" fill="#000000">OpenNgAllowFilterDirective </text>
</g>
<!-- OpenNgLibModule&#45;&gt;OpenNgAllowFilterDirective  -->
<g id="edge5" class="edge">
<title>OpenNgLibModule&#45;&gt;OpenNgAllowFilterDirective </title>
<path fill="none" stroke="#000000" stroke-dasharray="5,2" d="M378.5874,-173C486.1324,-173 692.3609,-173 692.3609,-173 692.3609,-173 692.3609,-205.698 692.3609,-205.698"/>
<polygon fill="#000000" stroke="#000000" points="688.861,-205.698 692.3609,-215.698 695.861,-205.698 688.861,-205.698"/>
</g>
<!-- OpenNgBackdropComponent  -->
<g id="node7" class="node">
<title>OpenNgBackdropComponent </title>
<polygon fill="#fb8072" stroke="#000000" points="614.1869,-252 427.8131,-252 427.8131,-216 614.1869,-216 614.1869,-252"/>
<text text-anchor="middle" x="521" y="-229.8" font-family="Times,serif" font-size="14.00" fill="#000000">OpenNgBackdropComponent </text>
</g>
<!-- OpenNgLibModule&#45;&gt;OpenNgBackdropComponent  -->
<g id="edge6" class="edge">
<title>OpenNgLibModule&#45;&gt;OpenNgBackdropComponent </title>
<path fill="none" stroke="#000000" stroke-dasharray="5,2" d="M378.3483,-180C428.6093,-180 490.4689,-180 490.4689,-180 490.4689,-180 490.4689,-205.7181 490.4689,-205.7181"/>
<polygon fill="#000000" stroke="#000000" points="486.969,-205.718 490.4689,-215.7181 493.969,-205.7181 486.969,-205.718"/>
</g>
<!-- OpenNgDisallowFilterDirective  -->
<g id="node8" class="node">
<title>OpenNgDisallowFilterDirective </title>
<polygon fill="#fb8072" stroke="#000000" points="409.8844,-252 210.1156,-252 210.1156,-216 409.8844,-216 409.8844,-252"/>
<text text-anchor="middle" x="310" y="-229.8" font-family="Times,serif" font-size="14.00" fill="#000000">OpenNgDisallowFilterDirective </text>
</g>
<!-- OpenNgLibModule&#45;&gt;OpenNgDisallowFilterDirective  -->
<g id="edge7" class="edge">
<title>OpenNgLibModule&#45;&gt;OpenNgDisallowFilterDirective </title>
<path fill="none" stroke="#000000" stroke-dasharray="5,2" d="M315,-187.1061C315,-187.1061 315,-205.991 315,-205.991"/>
<polygon fill="#000000" stroke="#000000" points="311.5001,-205.9909 315,-215.991 318.5001,-205.991 311.5001,-205.9909"/>
</g>
<!-- OpenNgModalComponent  -->
<g id="node9" class="node">
<title>OpenNgModalComponent </title>
<polygon fill="#fb8072" stroke="#000000" points="192.3101,-252 23.6899,-252 23.6899,-216 192.3101,-216 192.3101,-252"/>
<text text-anchor="middle" x="108" y="-229.8" font-family="Times,serif" font-size="14.00" fill="#000000">OpenNgModalComponent </text>
</g>
<!-- OpenNgLibModule&#45;&gt;OpenNgModalComponent  -->
<g id="edge8" class="edge">
<title>OpenNgLibModule&#45;&gt;OpenNgModalComponent </title>
<path fill="none" stroke="#000000" stroke-dasharray="5,2" d="M251.5514,-175C183.4821,-175 85.0317,-175 85.0317,-175 85.0317,-175 85.0317,-205.9775 85.0317,-205.9775"/>
<polygon fill="#000000" stroke="#000000" points="81.5318,-205.9774 85.0317,-215.9775 88.5318,-205.9775 81.5318,-205.9774"/>
</g>
</g>
</svg>
