<?xml version="1.0" encoding="UTF-8" standalone="no"?>
<!DOCTYPE svg PUBLIC "-//W3C//DTD SVG 1.1//EN"
 "http://www.w3.org/Graphics/SVG/1.1/DTD/svg11.dtd">
<!-- Generated by graphviz version 2.40.1 (20161225.0304)
 -->
<!-- Title: dependencies Pages: 1 -->
<svg width="1075pt" height="284pt"
 viewBox="0.00 0.00 1075.00 284.00" xmlns="http://www.w3.org/2000/svg" xmlns:xlink="http://www.w3.org/1999/xlink">
<g id="graph0" class="graph" transform="scale(1 1) rotate(0) translate(4 280)">
<title>dependencies</title>
<polygon fill="#ffffff" stroke="transparent" points="-4,4 -4,-280 1071,-280 1071,4 -4,4"/>
<text text-anchor="start" x="512.5091" y="-42.4" font-family="sans-serif" font-weight="bold" font-size="14.00" fill="#000000">Legend</text>
<polygon fill="#ffffb3" stroke="transparent" points="299.5,-10 299.5,-30 319.5,-30 319.5,-10 299.5,-10"/>
<text text-anchor="start" x="323.129" y="-15.4" font-family="sans-serif" font-size="14.00" fill="#000000"> &#160;Declarations</text>
<polygon fill="#8dd3c7" stroke="transparent" points="412.5,-10 412.5,-30 432.5,-30 432.5,-10 412.5,-10"/>
<text text-anchor="start" x="436.2251" y="-15.4" font-family="sans-serif" font-size="14.00" fill="#000000"> &#160;Module</text>
<polygon fill="#80b1d3" stroke="transparent" points="498.5,-10 498.5,-30 518.5,-30 518.5,-10 498.5,-10"/>
<text text-anchor="start" x="522.2812" y="-15.4" font-family="sans-serif" font-size="14.00" fill="#000000"> &#160;Bootstrap</text>
<polygon fill="#fdb462" stroke="transparent" points="595.5,-10 595.5,-30 615.5,-30 615.5,-10 595.5,-10"/>
<text text-anchor="start" x="619.1732" y="-15.4" font-family="sans-serif" font-size="14.00" fill="#000000"> &#160;Providers</text>
<polygon fill="#fb8072" stroke="transparent" points="691.5,-10 691.5,-30 711.5,-30 711.5,-10 691.5,-10"/>
<text text-anchor="start" x="715.2258" y="-15.4" font-family="sans-serif" font-size="14.00" fill="#000000"> &#160;Exports</text>
<g id="clust1" class="cluster">
<title>cluster_OpenNgLibModule</title>
<polygon fill="none" stroke="#000000" stroke-dasharray="1,5" points="8,-70 8,-268 1059,-268 1059,-70 8,-70"/>
</g>
<g id="clust2" class="cluster">
<title>cluster_OpenNgLibModule_declarations</title>
<polygon fill="none" stroke="#000000" points="24,-78 24,-130 1042,-130 1042,-78 24,-78"/>
</g>
<g id="clust9" class="cluster">
<title>cluster_OpenNgLibModule_exports</title>
<polygon fill="none" stroke="#000000" points="16,-208 16,-260 1051,-260 1051,-208 16,-208"/>
</g>
<!-- OpenNgAllowFilterDirective -->
<g id="node1" class="node">
<title>OpenNgAllowFilterDirective</title>
<polygon fill="#ffffb3" stroke="#000000" points="1034.3347,-122 853.6653,-122 853.6653,-86 1034.3347,-86 1034.3347,-122"/>
<text text-anchor="middle" x="944" y="-99.8" font-family="Times,serif" font-size="14.00" fill="#000000">OpenNgAllowFilterDirective</text>
</g>
<!-- OpenNgLibModule -->
<g id="node6" class="node">
<title>OpenNgLibModule</title>
<polygon fill="#8dd3c7" stroke="#000000" points="599.4215,-187 596.4215,-191 575.4215,-191 572.4215,-187 472.5785,-187 472.5785,-151 599.4215,-151 599.4215,-187"/>
<text text-anchor="middle" x="536" y="-164.8" font-family="Times,serif" font-size="14.00" fill="#000000">OpenNgLibModule</text>
</g>
<!-- OpenNgAllowFilterDirective&#45;&gt;OpenNgLibModule -->
<g id="edge1" class="edge">
<title>OpenNgAllowFilterDirective&#45;&gt;OpenNgLibModule</title>
<path fill="none" stroke="#000000" d="M975.8891,-122.2667C975.8891,-140.5552 975.8891,-166 975.8891,-166 975.8891,-166 609.4939,-166 609.4939,-166"/>
<polygon fill="#000000" stroke="#000000" points="609.4939,-162.5001 599.4939,-166 609.4938,-169.5001 609.4939,-162.5001"/>
</g>
<!-- OpenNgBackdropComponent -->
<g id="node2" class="node">
<title>OpenNgBackdropComponent</title>
<polygon fill="#ffffb3" stroke="#000000" points="835.6867,-122 652.3133,-122 652.3133,-86 835.6867,-86 835.6867,-122"/>
<text text-anchor="middle" x="744" y="-99.8" font-family="Times,serif" font-size="14.00" fill="#000000">OpenNgBackdropComponent</text>
</g>
<!-- OpenNgBackdropComponent&#45;&gt;OpenNgLibModule -->
<g id="edge2" class="edge">
<title>OpenNgBackdropComponent&#45;&gt;OpenNgLibModule</title>
<path fill="none" stroke="#000000" d="M774.9478,-122.0091C774.9478,-138.0494 774.9478,-159 774.9478,-159 774.9478,-159 609.4063,-159 609.4063,-159"/>
<polygon fill="#000000" stroke="#000000" points="609.4063,-155.5001 599.4063,-159 609.4062,-162.5001 609.4063,-155.5001"/>
</g>
<!-- OpenNgDisallowFilterDirective -->
<g id="node3" class="node">
<title>OpenNgDisallowFilterDirective</title>
<polygon fill="#ffffb3" stroke="#000000" points="634.3848,-122 437.6152,-122 437.6152,-86 634.3848,-86 634.3848,-122"/>
<text text-anchor="middle" x="536" y="-99.8" font-family="Times,serif" font-size="14.00" fill="#000000">OpenNgDisallowFilterDirective</text>
</g>
<!-- OpenNgDisallowFilterDirective&#45;&gt;OpenNgLibModule -->
<g id="edge3" class="edge">
<title>OpenNgDisallowFilterDirective&#45;&gt;OpenNgLibModule</title>
<path fill="none" stroke="#000000" d="M536,-122.1061C536,-122.1061 536,-140.991 536,-140.991"/>
<polygon fill="#000000" stroke="#000000" points="532.5001,-140.9909 536,-150.991 539.5001,-140.991 532.5001,-140.9909"/>
</g>
<!-- OpenNgLibFileSelectComponent -->
<g id="node4" class="node">
<title>OpenNgLibFileSelectComponent</title>
<polygon fill="#ffffb3" stroke="#000000" points="420.1895,-122 215.8105,-122 215.8105,-86 420.1895,-86 420.1895,-122"/>
<text text-anchor="middle" x="318" y="-99.8" font-family="Times,serif" font-size="14.00" fill="#000000">OpenNgLibFileSelectComponent</text>
</g>
<!-- OpenNgLibFileSelectComponent&#45;&gt;OpenNgLibModule -->
<g id="edge4" class="edge">
<title>OpenNgLibFileSelectComponent&#45;&gt;OpenNgLibModule</title>
<path fill="none" stroke="#000000" d="M350.5316,-122.0091C350.5316,-138.0494 350.5316,-159 350.5316,-159 350.5316,-159 462.691,-159 462.691,-159"/>
<polygon fill="#000000" stroke="#000000" points="462.6911,-162.5001 472.691,-159 462.691,-155.5001 462.6911,-162.5001"/>
</g>
<!-- OpenNgModalComponent -->
<g id="node5" class="node">
<title>OpenNgModalComponent</title>
<polygon fill="#ffffb3" stroke="#000000" points="197.8103,-122 32.1897,-122 32.1897,-86 197.8103,-86 197.8103,-122"/>
<text text-anchor="middle" x="115" y="-99.8" font-family="Times,serif" font-size="14.00" fill="#000000">OpenNgModalComponent</text>
</g>
<!-- OpenNgModalComponent&#45;&gt;OpenNgLibModule -->
<g id="edge5" class="edge">
<title>OpenNgModalComponent&#45;&gt;OpenNgLibModule</title>
<path fill="none" stroke="#000000" d="M139.0517,-122.2667C139.0517,-140.5552 139.0517,-166 139.0517,-166 139.0517,-166 462.6634,-166 462.6634,-166"/>
<polygon fill="#000000" stroke="#000000" points="462.6635,-169.5001 472.6634,-166 462.6634,-162.5001 462.6635,-169.5001"/>
</g>
<!-- OpenNgAllowFilterDirective  -->
<g id="node7" class="node">
<title>OpenNgAllowFilterDirective </title>
<polygon fill="#fb8072" stroke="#000000" points="1043.3349,-252 858.6651,-252 858.6651,-216 1043.3349,-216 1043.3349,-252"/>
<text text-anchor="middle" x="951" y="-229.8" font-family="Times,serif" font-size="14.00" fill="#000000">OpenNgAllowFilterDirective </text>
</g>
<!-- OpenNgLibModule&#45;&gt;OpenNgAllowFilterDirective  -->
<g id="edge6" class="edge">
<title>OpenNgLibModule&#45;&gt;OpenNgAllowFilterDirective </title>
<path fill="none" stroke="#000000" stroke-dasharray="5,2" d="M599.4021,-173C707.8436,-173 917.3609,-173 917.3609,-173 917.3609,-173 917.3609,-205.698 917.3609,-205.698"/>
<polygon fill="#000000" stroke="#000000" points="913.861,-205.698 917.3609,-215.698 920.861,-205.698 913.861,-205.698"/>
</g>
<!-- OpenNgBackdropComponent  -->
<g id="node8" class="node">
<title>OpenNgBackdropComponent </title>
<polygon fill="#fb8072" stroke="#000000" points="840.1869,-252 653.8131,-252 653.8131,-216 840.1869,-216 840.1869,-252"/>
<text text-anchor="middle" x="747" y="-229.8" font-family="Times,serif" font-size="14.00" fill="#000000">OpenNgBackdropComponent </text>
</g>
<!-- OpenNgLibModule&#45;&gt;OpenNgBackdropComponent  -->
<g id="edge7" class="edge">
<title>OpenNgLibModule&#45;&gt;OpenNgBackdropComponent </title>
<path fill="none" stroke="#000000" stroke-dasharray="5,2" d="M599.3647,-180C650.6139,-180 714.3022,-180 714.3022,-180 714.3022,-180 714.3022,-205.7181 714.3022,-205.7181"/>
<polygon fill="#000000" stroke="#000000" points="710.8023,-205.718 714.3022,-215.7181 717.8023,-205.7181 710.8023,-205.718"/>
</g>
<!-- OpenNgDisallowFilterDirective  -->
<g id="node9" class="node">
<title>OpenNgDisallowFilterDirective </title>
<polygon fill="#fb8072" stroke="#000000" points="635.8844,-252 436.1156,-252 436.1156,-216 635.8844,-216 635.8844,-252"/>
<text text-anchor="middle" x="536" y="-229.8" font-family="Times,serif" font-size="14.00" fill="#000000">OpenNgDisallowFilterDirective </text>
</g>
<!-- OpenNgLibModule&#45;&gt;OpenNgDisallowFilterDirective  -->
<g id="edge8" class="edge">
<title>OpenNgLibModule&#45;&gt;OpenNgDisallowFilterDirective </title>
<path fill="none" stroke="#000000" stroke-dasharray="5,2" d="M536,-187.1061C536,-187.1061 536,-205.991 536,-205.991"/>
<polygon fill="#000000" stroke="#000000" points="532.5001,-205.9909 536,-215.991 539.5001,-205.991 532.5001,-205.9909"/>
</g>
<!-- OpenNgLibFileSelectComponent  -->
<g id="node10" class="node">
<title>OpenNgLibFileSelectComponent </title>
<polygon fill="#fb8072" stroke="#000000" points="417.6896,-252 210.3104,-252 210.3104,-216 417.6896,-216 417.6896,-252"/>
<text text-anchor="middle" x="314" y="-229.8" font-family="Times,serif" font-size="14.00" fill="#000000">OpenNgLibFileSelectComponent </text>
</g>
<!-- OpenNgLibModule&#45;&gt;OpenNgLibFileSelectComponent  -->
<g id="edge9" class="edge">
<title>OpenNgLibModule&#45;&gt;OpenNgLibFileSelectComponent </title>
<path fill="none" stroke="#000000" stroke-dasharray="5,2" d="M472.5388,-180C397.66,-180 283.2184,-180 283.2184,-180 283.2184,-180 283.2184,-205.7181 283.2184,-205.7181"/>
<polygon fill="#000000" stroke="#000000" points="279.7185,-205.718 283.2184,-215.7181 286.7185,-205.7181 279.7185,-205.718"/>
</g>
<!-- OpenNgModalComponent  -->
<g id="node11" class="node">
<title>OpenNgModalComponent </title>
<polygon fill="#fb8072" stroke="#000000" points="192.3101,-252 23.6899,-252 23.6899,-216 192.3101,-216 192.3101,-252"/>
<text text-anchor="middle" x="108" y="-229.8" font-family="Times,serif" font-size="14.00" fill="#000000">OpenNgModalComponent </text>
</g>
<!-- OpenNgLibModule&#45;&gt;OpenNgModalComponent  -->
<g id="edge10" class="edge">
<title>OpenNgLibModule&#45;&gt;OpenNgModalComponent </title>
<path fill="none" stroke="#000000" stroke-dasharray="5,2" d="M472.4378,-173C348.3119,-173 85.6983,-173 85.6983,-173 85.6983,-173 85.6983,-205.698 85.6983,-205.698"/>
<polygon fill="#000000" stroke="#000000" points="82.1984,-205.698 85.6983,-215.698 89.1984,-205.698 82.1984,-205.698"/>
</g>
</g>
</svg>
